<?xml version="1.0" encoding="UTF-8" ?>
<!DOCTYPE svg PUBLIC "-//W3C//DTD SVG 1.1//EN" "http://www.w3.org/Graphics/SVG/1.1/DTD/svg11.dtd">
<svg width="140pt" height="158pt" viewBox="0 0 140 158" version="1.1" xmlns="http://www.w3.org/2000/svg">
<g id="#ffffffff">
<path fill="#ffffff" opacity="1.00" d=" M 25.16 45.61 C 39.14 39.53 53.04 33.27 66.99 27.14 C 67.01 44.76 66.99 62.38 67.00 80.00 C 53.03 80.00 39.06 80.01 25.10 79.99 C 25.13 68.53 25.00 57.07 25.16 45.61 Z" />
<path fill="#ffffff" opacity="1.00" d=" M 67.00 80.00 C 80.96 80.00 94.92 79.99 108.89 80.01 C 106.12 103.69 90.05 126.14 67.01 133.70 C 66.99 115.80 67.01 97.90 67.00 80.00 Z" />
</g>
<g id="#f290b1ff">
<path fill="#f290b1" opacity="1.00" d=" M 13.00 38.13 C 30.98 30.01 48.99 21.97 67.00 13.92 C 85.01 21.97 103.02 30.01 121.00 38.12 C 120.97 50.76 121.08 63.39 120.94 76.03 C 120.68 91.94 114.90 107.56 105.22 120.14 C 96.06 132.48 82.92 142.15 67.87 145.80 C 65.44 146.12 63.13 144.88 60.84 144.23 C 46.13 139.22 33.93 128.45 25.53 115.54 C 17.56 103.62 13.14 89.39 13.03 75.05 C 12.95 62.74 13.02 50.43 13.00 38.13 M 25.16 45.61 C 25.00 57.07 25.13 68.53 25.10 79.99 C 39.06 80.01 53.03 80.00 67.00 80.00 C 66.99 62.38 67.01 44.76 66.99 27.14 C 53.04 33.27 39.14 39.53 25.16 45.61 M 67.00 80.00 C 67.01 97.90 66.99 115.80 67.01 133.70 C 90.05 126.14 106.12 103.69 108.89 80.01 C 94.92 79.99 80.96 80.00 67.00 80.00 Z" />
</g>
</svg>
