<?xml version="1.0" encoding="UTF-8" ?>
<!DOCTYPE svg PUBLIC "-//W3C//DTD SVG 1.1//EN" "http://www.w3.org/Graphics/SVG/1.1/DTD/svg11.dtd">
<svg width="184pt" height="164pt" viewBox="0 0 184 164" version="1.1" xmlns="http://www.w3.org/2000/svg">
<g id="#ffffffff">
<path fill="#ffffff" opacity="1.00" d=" M 81.42 28.66 C 92.89 26.69 105.18 28.65 115.03 35.01 C 125.46 41.74 133.80 52.20 136.71 64.40 C 139.63 76.69 137.90 90.27 131.02 100.98 C 124.30 111.43 113.84 119.78 101.64 122.70 C 90.24 125.41 77.77 124.15 67.42 118.53 C 55.37 111.99 46.03 100.28 43.09 86.81 C 40.51 74.95 42.17 62.00 48.61 51.61 C 55.84 39.98 67.75 30.92 81.42 28.66 M 84.11 45.93 C 84.08 57.92 84.09 69.91 84.11 81.90 C 88.03 81.92 91.96 81.92 95.90 81.90 C 95.91 69.91 95.92 57.92 95.89 45.93 C 91.96 45.89 88.04 45.89 84.11 45.93 M 84.10 94.01 C 84.08 98.03 84.08 102.05 84.11 106.07 C 88.04 106.11 91.96 106.11 95.89 106.07 C 95.92 102.05 95.91 98.03 95.90 94.01 C 91.97 93.99 88.03 93.99 84.10 94.01 Z" />
</g>
<g id="#a0a9d8ff">
<path fill="#a0a9d8" opacity="1.00" d=" M 82.49 16.56 C 95.57 15.04 109.29 17.44 120.57 24.41 C 134.06 32.76 144.74 46.22 148.29 61.84 C 151.75 77.12 149.64 93.93 141.16 107.26 C 132.93 120.15 120.05 130.40 105.06 134.07 C 89.55 137.83 72.37 135.81 58.77 127.18 C 45.67 118.83 35.30 105.66 31.77 90.39 C 28.37 75.53 30.15 59.22 38.03 46.03 C 47.46 30.28 64.02 18.47 82.49 16.56 M 81.42 28.66 C 67.75 30.92 55.84 39.98 48.61 51.61 C 42.17 62.00 40.51 74.95 43.09 86.81 C 46.03 100.28 55.37 111.99 67.42 118.53 C 77.77 124.15 90.24 125.41 101.64 122.70 C 113.84 119.78 124.30 111.43 131.02 100.98 C 137.90 90.27 139.63 76.69 136.71 64.40 C 133.80 52.20 125.46 41.74 115.03 35.01 C 105.18 28.65 92.89 26.69 81.42 28.66 Z" />
<path fill="#a0a9d8" opacity="1.00" d=" M 84.11 45.93 C 88.04 45.89 91.96 45.89 95.89 45.93 C 95.92 57.92 95.91 69.91 95.90 81.90 C 91.96 81.92 88.03 81.92 84.11 81.90 C 84.09 69.91 84.08 57.92 84.11 45.93 Z" />
<path fill="#a0a9d8" opacity="1.00" d=" M 84.10 94.01 C 88.03 93.99 91.97 93.99 95.90 94.01 C 95.91 98.03 95.92 102.05 95.89 106.07 C 91.96 106.11 88.04 106.11 84.11 106.07 C 84.08 102.05 84.08 98.03 84.10 94.01 Z" />
</g>
</svg>
